<svg width="200" height="200" viewBox="0 0 200 200" xmlns="http://www.w3.org/2000/svg" xmlns:xlink="http://www.w3.org/1999/xlink"><title>Group 28 Copy 5</title><desc>Created with Sketch.</desc><defs><linearGradient x1="62.1023273%" y1="0" x2="108.19718%" y2="37.8635764%" id="linearGradient-1"><stop stop-color="#4285eb" offset="0"/><stop stop-color="#2ec7ff" offset="100%"/></linearGradient><linearGradient x1="69.644116%" y1="0" x2="54.0428975%" y2="108.456714%" id="linearGradient-2"><stop stop-color="#29cdff" offset="0"/><stop stop-color="#148eff" offset="37.8600687%"/><stop stop-color="#0a60ff" offset="100%"/></linearGradient><linearGradient x1="69.6908165%" y1="-12.9743587%" x2="16.7228981%" y2="117.391248%" id="linearGradient-3"><stop stop-color="#fa816e" offset="0"/><stop stop-color="#f74a5c" offset="41.472606%"/><stop stop-color="#f51d2c" offset="100%"/></linearGradient><linearGradient x1="68.1279872%" y1="-35.6905737%" x2="30.4400914%" y2="114.942679%" id="linearGradient-4"><stop stop-color="#fa8e7d" offset="0"/><stop stop-color="#f74a5c" offset="51.2635191%"/><stop stop-color="#f51d2c" offset="100%"/></linearGradient></defs><g id="Page-1" stroke="none" stroke-width="1" fill="none" fill-rule="evenodd"><g id="logo" transform="translate(-20.000000, -20.000000)"><g id="Group-28-Copy-5" transform="translate(20.000000, 20.000000)"><g id="Group-27-Copy-3"><g id="Group-25" fill-rule="nonzero"><g id="2"><path d="M91.5880863 4.17652823 4.17996544 91.5127728C-.519240605 96.2081146-.519240605 103.791885 4.17996544 108.487227L91.5880863 195.823472C96.2872923 200.518814 103.877304 200.518814 108.57651 195.823472L145.225487 159.204632C149.433969 154.999611 149.433969 148.181924 145.225487 143.976903 141.017005 139.771881 134.193707 139.771881 129.985225 143.976903L102.20193 171.737352C101.032305 172.906015 99.2571609 172.906015 98.0875359 171.737352L28.285908 101.993122C27.1162831 100.824459 27.1162831 99.050775 28.285908 97.8821118L98.0875359 28.1378823C99.2571609 26.9692191 101.032305 26.9692191 102.20193 28.1378823L129.985225 55.8983314C134.193707 60.1033528 141.017005 60.1033528 145.225487 55.8983314 149.433969 51.69331 149.433969 44.8756232 145.225487 40.6706018L108.58055 4.05574592C103.862049-.537986846 96.2692618-.500797906 91.5880863 4.17652823z" id="Shape" fill="url(#linearGradient-1)"/><path d="M91.5880863 4.17652823 4.17996544 91.5127728C-.519240605 96.2081146-.519240605 103.791885 4.17996544 108.487227L91.5880863 195.823472C96.2872923 200.518814 103.877304 200.518814 108.57651 195.823472L145.225487 159.204632C149.433969 154.999611 149.433969 148.181924 145.225487 143.976903 141.017005 139.771881 134.193707 139.771881 129.985225 143.976903L102.20193 171.737352C101.032305 172.906015 99.2571609 172.906015 98.0875359 171.737352L28.285908 101.993122C27.1162831 100.824459 27.1162831 99.050775 28.285908 97.8821118L98.0875359 28.1378823C100.999864 25.6271836 105.751642 20.541824 112.729652 19.3524487 117.915585 18.4685261 123.585219 20.4140239 129.738554 25.1889424 125.624663 21.0784292 118.571995 14.0340304 108.58055 4.05574592 103.862049-.537986846 96.2692618-.500797906 91.5880863 4.17652823z" id="Shape" fill="url(#linearGradient-2)"/></g><path d="M153.685633 135.854579C157.894115 140.0596 164.717412 140.0596 168.925894 135.854579L195.959977 108.842726C200.659183 104.147384 200.659183 96.5636133 195.960527 91.8688194L168.690777 64.7181159C164.472332 60.5180858 157.646868 60.5241425 153.435895 64.7316526 149.227413 68.936674 149.227413 75.7543607 153.435895 79.9593821L171.854035 98.3623765C173.02366 99.5310396 173.02366 101.304724 171.854035 102.473387L153.685633 120.626849C149.47715 124.83187 149.47715 131.649557 153.685633 135.854579z" id="Shape" fill="url(#linearGradient-3)"/></g><ellipse id="Combined-Shape" fill="url(#linearGradient-4)" cx="100.519339" cy="100.436681" rx="23.6001926" ry="23.580786"/></g></g></g></g></svg>